<?xml version="1.0" encoding="UTF-8"?>
<!DOCTYPE svg PUBLIC "-//W3C//DTD SVG 1.1//EN" "http://www.w3.org/Graphics/SVG/1.1/DTD/svg11.dtd">
<svg version="1.2" width="10mm" height="10mm" viewBox="0 0 1000 1000" preserveAspectRatio="xMidYMid" fill-rule="evenodd" stroke-width="28.222" stroke-linejoin="round" xmlns="http://www.w3.org/2000/svg" xmlns:ooo="http://xml.openoffice.org/svg/export" xmlns:xlink="http://www.w3.org/1999/xlink" xmlns:presentation="http://sun.com/xmlns/staroffice/presentation" xmlns:smil="http://www.w3.org/2001/SMIL20/" xmlns:anim="urn:oasis:names:tc:opendocument:xmlns:animation:1.0" xml:space="preserve">
 <defs class="ClipPathGroup">
  <clipPath id="presentation_clip_path" clipPathUnits="userSpaceOnUse">
   <rect x="0" y="0" width="1000" height="1000"/>
  </clipPath>
  <clipPath id="presentation_clip_path_shrink" clipPathUnits="userSpaceOnUse">
   <rect x="1" y="1" width="998" height="998"/>
  </clipPath>
 </defs>
 <defs class="TextShapeIndex">
  <g ooo:slide="id1" ooo:id-list="id3 id4 id5"/>
 </defs>
 <defs class="EmbeddedBulletChars">
  <g id="bullet-char-template-57356" transform="scale(0.00048828125,-0.00048828125)">
   <path d="M 580,1141 L 1163,571 580,0 -4,571 580,1141 Z"/>
  </g>
  <g id="bullet-char-template-57354" transform="scale(0.00048828125,-0.00048828125)">
   <path d="M 8,1128 L 1137,1128 1137,0 8,0 8,1128 Z"/>
  </g>
  <g id="bullet-char-template-10146" transform="scale(0.00048828125,-0.00048828125)">
   <path d="M 174,0 L 602,739 174,1481 1456,739 174,0 Z M 1358,739 L 309,1346 659,739 1358,739 Z"/>
  </g>
  <g id="bullet-char-template-10132" transform="scale(0.00048828125,-0.00048828125)">
   <path d="M 2015,739 L 1276,0 717,0 1260,543 174,543 174,936 1260,936 717,1481 1274,1481 2015,739 Z"/>
  </g>
  <g id="bullet-char-template-10007" transform="scale(0.00048828125,-0.00048828125)">
   <path d="M 0,-2 C -7,14 -16,27 -25,37 L 356,567 C 262,823 215,952 215,954 215,979 228,992 255,992 264,992 276,990 289,987 310,991 331,999 354,1012 L 381,999 492,748 772,1049 836,1024 860,1049 C 881,1039 901,1025 922,1006 886,937 835,863 770,784 769,783 710,716 594,584 L 774,223 C 774,196 753,168 711,139 L 727,119 C 717,90 699,76 672,76 641,76 570,178 457,381 L 164,-76 C 142,-110 111,-127 72,-127 30,-127 9,-110 8,-76 1,-67 -2,-52 -2,-32 -2,-23 -1,-13 0,-2 Z"/>
  </g>
  <g id="bullet-char-template-10004" transform="scale(0.00048828125,-0.00048828125)">
   <path d="M 285,-33 C 182,-33 111,30 74,156 52,228 41,333 41,471 41,549 55,616 82,672 116,743 169,778 240,778 293,778 328,747 346,684 L 369,508 C 377,444 397,411 428,410 L 1163,1116 C 1174,1127 1196,1133 1229,1133 1271,1133 1292,1118 1292,1087 L 1292,965 C 1292,929 1282,901 1262,881 L 442,47 C 390,-6 338,-33 285,-33 Z"/>
  </g>
  <g id="bullet-char-template-9679" transform="scale(0.00048828125,-0.00048828125)">
   <path d="M 813,0 C 632,0 489,54 383,161 276,268 223,411 223,592 223,773 276,916 383,1023 489,1130 632,1184 813,1184 992,1184 1136,1130 1245,1023 1353,916 1407,772 1407,592 1407,412 1353,268 1245,161 1136,54 992,0 813,0 Z"/>
  </g>
  <g id="bullet-char-template-8226" transform="scale(0.00048828125,-0.00048828125)">
   <path d="M 346,457 C 273,457 209,483 155,535 101,586 74,649 74,723 74,796 101,859 155,911 209,963 273,989 346,989 419,989 480,963 531,910 582,859 608,796 608,723 608,648 583,586 532,535 482,483 420,457 346,457 Z"/>
  </g>
  <g id="bullet-char-template-8211" transform="scale(0.00048828125,-0.00048828125)">
   <path d="M -4,459 L 1135,459 1135,606 -4,606 -4,459 Z"/>
  </g>
  <g id="bullet-char-template-61548" transform="scale(0.00048828125,-0.00048828125)">
   <path d="M 173,740 C 173,903 231,1043 346,1159 462,1274 601,1332 765,1332 928,1332 1067,1274 1183,1159 1299,1043 1357,903 1357,740 1357,577 1299,437 1183,322 1067,206 928,148 765,148 601,148 462,206 346,322 231,437 173,577 173,740 Z"/>
  </g>
 </defs>
 <g>
  <g id="id2" class="Master_Slide">
   <g id="bg-id2" class="Background"/>
   <g id="bo-id2" class="BackgroundObjects"/>
  </g>
 </g>
 <g class="SlideGroup">
  <g>
   <g id="container-id1">
    <g id="id1" class="Slide" clip-path="url(#presentation_clip_path)">
     <g class="Page">
      <g class="Group">
       <g class="com.sun.star.drawing.CustomShape">
        <g id="id3">
         <rect class="BoundingBox" stroke="none" fill="none" x="89" y="141" width="823" height="145"/>
         <path fill="rgb(0,0,0)" stroke="none" d="M 160,142 L 161,142 C 149,142 136,145 125,152 115,158 106,167 100,178 93,188 90,201 90,213 L 90,213 90,213 C 90,225 93,238 100,249 106,259 115,268 126,274 136,281 149,284 161,284 L 838,284 839,284 C 851,284 864,281 874,274 885,268 894,259 900,249 907,238 910,225 910,213 L 909,213 910,213 910,213 C 910,201 907,188 900,177 894,167 885,158 874,152 864,145 851,142 839,142 L 160,142 Z"/>
         <path fill="none" stroke="rgb(0,0,0)" d="M 160,142 L 161,142 C 149,142 136,145 125,152 115,158 106,167 100,178 93,188 90,201 90,213 L 90,213 90,213 C 90,225 93,238 100,249 106,259 115,268 126,274 136,281 149,284 161,284 L 838,284 839,284 C 851,284 864,281 874,274 885,268 894,259 900,249 907,238 910,225 910,213 L 909,213 910,213 910,213 C 910,201 907,188 900,177 894,167 885,158 874,152 864,145 851,142 839,142 L 160,142 Z"/>
        </g>
       </g>
       <g class="com.sun.star.drawing.CustomShape">
        <g id="id4">
         <rect class="BoundingBox" stroke="none" fill="none" x="89" y="428" width="823" height="145"/>
         <path fill="rgb(0,0,0)" stroke="none" d="M 160,429 L 161,429 C 149,429 136,432 125,439 115,445 106,454 100,465 93,475 90,488 90,500 L 90,500 90,500 C 90,512 93,525 100,536 106,546 115,555 126,561 136,568 149,571 161,571 L 838,571 839,571 C 851,571 864,568 874,561 885,555 894,546 900,536 907,525 910,512 910,500 L 909,500 910,500 910,500 C 910,488 907,475 900,465 894,454 885,445 874,439 864,432 851,429 839,429 L 160,429 Z"/>
         <path fill="none" stroke="rgb(0,0,0)" d="M 160,429 L 161,429 C 149,429 136,432 125,439 115,445 106,454 100,465 93,475 90,488 90,500 L 90,500 90,500 C 90,512 93,525 100,536 106,546 115,555 126,561 136,568 149,571 161,571 L 838,571 839,571 C 851,571 864,568 874,561 885,555 894,546 900,536 907,525 910,512 910,500 L 909,500 910,500 910,500 C 910,488 907,475 900,465 894,454 885,445 874,439 864,432 851,429 839,429 L 160,429 Z"/>
        </g>
       </g>
       <g class="com.sun.star.drawing.CustomShape">
        <g id="id5">
         <rect class="BoundingBox" stroke="none" fill="none" x="89" y="714" width="823" height="145"/>
         <path fill="rgb(0,0,0)" stroke="none" d="M 160,715 L 161,715 C 149,715 136,718 125,725 115,731 106,740 100,751 93,761 90,774 90,786 L 90,786 90,786 C 90,798 93,811 100,822 106,832 115,841 126,847 136,854 149,857 161,857 L 838,857 839,857 C 851,857 864,854 874,847 885,841 894,832 900,822 907,811 910,798 910,786 L 909,786 910,786 910,786 C 910,774 907,761 900,751 894,740 885,731 874,725 864,718 851,715 839,715 L 160,715 Z"/>
         <path fill="none" stroke="rgb(0,0,0)" d="M 160,715 L 161,715 C 149,715 136,718 125,725 115,731 106,740 100,751 93,761 90,774 90,786 L 90,786 90,786 C 90,798 93,811 100,822 106,832 115,841 126,847 136,854 149,857 161,857 L 838,857 839,857 C 851,857 864,854 874,847 885,841 894,832 900,822 907,811 910,798 910,786 L 909,786 910,786 910,786 C 910,774 907,761 900,751 894,740 885,731 874,725 864,718 851,715 839,715 L 160,715 Z"/>
        </g>
       </g>
      </g>
     </g>
    </g>
   </g>
  </g>
 </g>
</svg>