<?xml version="1.0" encoding="UTF-8"?>
<!DOCTYPE svg PUBLIC "-//W3C//DTD SVG 1.1//EN" "http://www.w3.org/Graphics/SVG/1.1/DTD/svg11.dtd">
<svg version="1.2" width="10mm" height="10mm" viewBox="0 0 1000 1000" preserveAspectRatio="xMidYMid" fill-rule="evenodd" stroke-width="28.222" stroke-linejoin="round" xmlns="http://www.w3.org/2000/svg" xmlns:ooo="http://xml.openoffice.org/svg/export" xmlns:xlink="http://www.w3.org/1999/xlink" xmlns:presentation="http://sun.com/xmlns/staroffice/presentation" xmlns:smil="http://www.w3.org/2001/SMIL20/" xmlns:anim="urn:oasis:names:tc:opendocument:xmlns:animation:1.0" xml:space="preserve">
 <defs class="ClipPathGroup">
  <clipPath id="presentation_clip_path" clipPathUnits="userSpaceOnUse">
   <rect x="0" y="0" width="1000" height="1000"/>
  </clipPath>
  <clipPath id="presentation_clip_path_shrink" clipPathUnits="userSpaceOnUse">
   <rect x="1" y="1" width="998" height="998"/>
  </clipPath>
 </defs>
 <defs class="TextShapeIndex">
  <g ooo:slide="id1" ooo:id-list="id3 id4 id5"/>
 </defs>
 <defs class="EmbeddedBulletChars">
  <g id="bullet-char-template-57356" transform="scale(0.00048828125,-0.00048828125)">
   <path d="M 580,1141 L 1163,571 580,0 -4,571 580,1141 Z"/>
  </g>
  <g id="bullet-char-template-57354" transform="scale(0.00048828125,-0.00048828125)">
   <path d="M 8,1128 L 1137,1128 1137,0 8,0 8,1128 Z"/>
  </g>
  <g id="bullet-char-template-10146" transform="scale(0.00048828125,-0.00048828125)">
   <path d="M 174,0 L 602,739 174,1481 1456,739 174,0 Z M 1358,739 L 309,1346 659,739 1358,739 Z"/>
  </g>
  <g id="bullet-char-template-10132" transform="scale(0.00048828125,-0.00048828125)">
   <path d="M 2015,739 L 1276,0 717,0 1260,543 174,543 174,936 1260,936 717,1481 1274,1481 2015,739 Z"/>
  </g>
  <g id="bullet-char-template-10007" transform="scale(0.00048828125,-0.00048828125)">
   <path d="M 0,-2 C -7,14 -16,27 -25,37 L 356,567 C 262,823 215,952 215,954 215,979 228,992 255,992 264,992 276,990 289,987 310,991 331,999 354,1012 L 381,999 492,748 772,1049 836,1024 860,1049 C 881,1039 901,1025 922,1006 886,937 835,863 770,784 769,783 710,716 594,584 L 774,223 C 774,196 753,168 711,139 L 727,119 C 717,90 699,76 672,76 641,76 570,178 457,381 L 164,-76 C 142,-110 111,-127 72,-127 30,-127 9,-110 8,-76 1,-67 -2,-52 -2,-32 -2,-23 -1,-13 0,-2 Z"/>
  </g>
  <g id="bullet-char-template-10004" transform="scale(0.00048828125,-0.00048828125)">
   <path d="M 285,-33 C 182,-33 111,30 74,156 52,228 41,333 41,471 41,549 55,616 82,672 116,743 169,778 240,778 293,778 328,747 346,684 L 369,508 C 377,444 397,411 428,410 L 1163,1116 C 1174,1127 1196,1133 1229,1133 1271,1133 1292,1118 1292,1087 L 1292,965 C 1292,929 1282,901 1262,881 L 442,47 C 390,-6 338,-33 285,-33 Z"/>
  </g>
  <g id="bullet-char-template-9679" transform="scale(0.00048828125,-0.00048828125)">
   <path d="M 813,0 C 632,0 489,54 383,161 276,268 223,411 223,592 223,773 276,916 383,1023 489,1130 632,1184 813,1184 992,1184 1136,1130 1245,1023 1353,916 1407,772 1407,592 1407,412 1353,268 1245,161 1136,54 992,0 813,0 Z"/>
  </g>
  <g id="bullet-char-template-8226" transform="scale(0.00048828125,-0.00048828125)">
   <path d="M 346,457 C 273,457 209,483 155,535 101,586 74,649 74,723 74,796 101,859 155,911 209,963 273,989 346,989 419,989 480,963 531,910 582,859 608,796 608,723 608,648 583,586 532,535 482,483 420,457 346,457 Z"/>
  </g>
  <g id="bullet-char-template-8211" transform="scale(0.00048828125,-0.00048828125)">
   <path d="M -4,459 L 1135,459 1135,606 -4,606 -4,459 Z"/>
  </g>
  <g id="bullet-char-template-61548" transform="scale(0.00048828125,-0.00048828125)">
   <path d="M 173,740 C 173,903 231,1043 346,1159 462,1274 601,1332 765,1332 928,1332 1067,1274 1183,1159 1299,1043 1357,903 1357,740 1357,577 1299,437 1183,322 1067,206 928,148 765,148 601,148 462,206 346,322 231,437 173,577 173,740 Z"/>
  </g>
 </defs>
 <g>
  <g id="id2" class="Master_Slide">
   <g id="bg-id2" class="Background"/>
   <g id="bo-id2" class="BackgroundObjects"/>
  </g>
 </g>
 <g class="SlideGroup">
  <g>
   <g id="container-id1">
    <g id="id1" class="Slide" clip-path="url(#presentation_clip_path)">
     <g class="Page">
      <g class="Group">
       <g class="com.sun.star.drawing.ClosedBezierShape">
        <g id="id3">
         <rect class="BoundingBox" stroke="none" fill="none" x="356" y="200" width="292" height="292"/>
         <path fill="rgb(0,0,0)" stroke="none" d="M 548,372 C 553,365 555,355 555,346 555,336 553,327 548,319 543,311 536,304 528,299 521,294 511,292 502,292 492,292 483,294 475,299 467,304 460,311 455,319 450,327 448,336 448,346 448,355 450,365 455,372 460,380 467,387 475,392 483,397 492,399 502,399 511,399 521,397 528,392 536,387 543,380 548,372 Z M 534,445 L 518,490 485,490 469,444 C 464,443 459,441 454,439 L 411,460 387,436 409,393 C 406,388 404,383 403,378 L 357,362 357,329 403,313 C 404,308 406,303 408,298 L 387,255 411,231 454,253 C 459,250 464,248 469,247 L 485,201 518,201 534,247 C 539,248 544,250 549,253 L 592,231 616,255 595,298 C 597,303 599,308 600,313 L 646,329 646,362 601,378 C 599,383 597,388 595,393 L 616,436 592,460 549,439 C 544,441 539,443 534,445 Z"/>
         <path fill="none" stroke="rgb(0,0,0)" d="M 548,372 C 553,365 555,355 555,346 555,336 553,327 548,319 543,311 536,304 528,299 521,294 511,292 502,292 492,292 483,294 475,299 467,304 460,311 455,319 450,327 448,336 448,346 448,355 450,365 455,372 460,380 467,387 475,392 483,397 492,399 502,399 511,399 521,397 528,392 536,387 543,380 548,372 Z"/>
         <path fill="none" stroke="rgb(0,0,0)" d="M 534,445 L 518,490 485,490 469,444 C 464,443 459,441 454,439 L 411,460 387,436 409,393 C 406,388 404,383 403,378 L 357,362 357,329 403,313 C 404,308 406,303 408,298 L 387,255 411,231 454,253 C 459,250 464,248 469,247 L 485,201 518,201 534,247 C 539,248 544,250 549,253 L 592,231 616,255 595,298 C 597,303 599,308 600,313 L 646,329 646,362 601,378 C 599,383 597,388 595,393 L 616,436 592,460 549,439 C 544,441 539,443 534,445 Z"/>
        </g>
       </g>
      </g>
      <g class="com.sun.star.drawing.ClosedBezierShape">
       <g id="id4">
        <rect class="BoundingBox" stroke="none" fill="none" x="206" y="533" width="591" height="374"/>
        <path fill="rgb(0,0,0)" stroke="none" d="M 212,778 L 207,783 C 207,781 207,780 207,778 207,730 221,683 246,641 272,600 309,565 354,541 359,539 363,536 368,534 379,545 392,554 405,562 434,579 467,588 501,588 534,588 567,579 597,562 610,554 623,545 634,534 639,536 643,539 648,541 693,565 730,600 755,641 781,682 794,728 795,775 L 720,844 526,905 402,896 282,843 212,778 Z"/>
        <path fill="none" stroke="rgb(0,0,0)" d="M 212,778 L 207,783 207,778 C 207,730 221,683 246,641 272,600 309,565 354,541 359,539 363,536 368,534 379,545 392,554 405,562 434,579 467,588 501,588 534,588 567,579 597,562 610,554 623,545 634,534 639,536 643,539 648,541 693,565 730,600 755,641 781,682 794,728 795,775 L 720,844 526,905 402,896 282,843 212,778 Z"/>
       </g>
      </g>
      <g class="com.sun.star.drawing.ClosedBezierShape">
       <g id="id5">
        <rect class="BoundingBox" stroke="none" fill="none" x="84" y="84" width="836" height="836"/>
        <path fill="rgb(0,0,0)" stroke="none" d="M 905,610 C 895,645 881,679 863,710 845,742 822,771 797,797 771,822 742,845 710,863 679,881 645,895 610,905 574,914 538,919 502,919 465,919 429,914 393,905 358,895 324,881 293,863 261,845 232,822 206,797 181,771 158,742 140,710 122,679 108,645 98,610 89,574 84,538 84,502 84,465 89,429 98,393 108,358 122,324 140,293 158,261 181,232 206,206 232,181 261,158 293,140 324,122 358,108 393,98 429,89 465,84 501,84 538,84 574,89 610,98 645,108 679,122 710,140 742,158 771,181 797,206 822,232 845,261 863,293 881,324 895,358 905,393 914,429 919,465 919,502 919,538 914,574 905,610 Z M 125,602 C 134,635 147,667 164,697 181,726 202,753 226,777 250,801 277,822 306,839 336,856 368,869 401,878 433,887 467,892 502,892 536,892 570,887 602,878 635,869 667,856 697,839 726,822 753,801 777,777 801,753 822,726 839,697 856,667 869,635 878,602 887,570 892,536 892,502 892,467 887,433 878,401 869,368 856,336 839,306 822,277 801,250 777,226 753,202 726,181 697,164 667,147 635,134 602,125 570,116 536,111 501,111 467,111 433,116 401,125 368,134 336,147 306,164 277,181 250,202 226,226 202,250 181,277 164,306 147,336 134,368 125,401 116,433 111,467 111,502 111,536 116,570 125,602 Z"/>
       </g>
      </g>
     </g>
    </g>
   </g>
  </g>
 </g>
</svg>